# MagicaVoxel @ ephtracy

# material
mtllib chair.mtl
usemtl palette

# normals
vn -1 0 0
vn 1 0 0
vn 0 0 1
vn 0 0 -1
vn 0 -1 0
vn 0 1 0

# texcoords
vt 0.654297 0.5
vt 0.962891 0.5

# verts
v -1.5 0 2
v -1.5 0 1
v -1.5 0 -0
v -1.5 0 -1
v -1.5 2 2
v -1.5 2 1
v -1.5 2 -0
v -1.5 2 -1
v -1.5 3 2
v -1.5 3 -1
v -1.5 3 -2
v -1.5 7 -1
v -1.5 7 -2
v 0.5 0 2
v 0.5 0 1
v 0.5 0 -0
v 0.5 0 -1
v 0.5 2 2
v 0.5 2 1
v 0.5 2 -0
v 0.5 2 -1
v -0.5 0 2
v -0.5 0 1
v -0.5 0 -0
v -0.5 0 -1
v -0.5 2 2
v -0.5 2 1
v -0.5 2 -0
v -0.5 2 -1
v 1.5 0 2
v 1.5 0 1
v 1.5 0 -0
v 1.5 0 -1
v 1.5 2 2
v 1.5 2 1
v 1.5 2 -0
v 1.5 2 -1
v 1.5 3 2
v 1.5 3 -1
v 1.5 3 -2
v 1.5 7 -1
v 1.5 7 -2
v -1.5 0 2
v -1.5 2 2
v -1.5 3 2
v -0.5 0 2
v -0.5 2 2
v 0.5 0 2
v 0.5 2 2
v 1.5 0 2
v 1.5 2 2
v 1.5 3 2
v -1.5 0 -0
v -1.5 2 -0
v -0.5 0 -0
v -0.5 2 -0
v 0.5 0 -0
v 0.5 2 -0
v 1.5 0 -0
v 1.5 2 -0
v -1.5 3 -1
v -1.5 7 -1
v 1.5 3 -1
v 1.5 7 -1
v -1.5 0 1
v -1.5 2 1
v -0.5 0 1
v -0.5 2 1
v 0.5 0 1
v 0.5 2 1
v 1.5 0 1
v 1.5 2 1
v -1.5 0 -1
v -1.5 2 -1
v -1.5 3 -1
v -0.5 0 -1
v -0.5 2 -1
v 0.5 0 -1
v 0.5 2 -1
v 1.5 0 -1
v 1.5 2 -1
v 1.5 3 -1
v -1.5 3 -2
v -1.5 7 -2
v 1.5 3 -2
v 1.5 7 -2
v -1.5 0 2
v -0.5 0 2
v 0.5 0 2
v 1.5 0 2
v -1.5 0 1
v -0.5 0 1
v 0.5 0 1
v 1.5 0 1
v -1.5 0 -0
v -0.5 0 -0
v 0.5 0 -0
v 1.5 0 -0
v -1.5 0 -1
v -0.5 0 -1
v 0.5 0 -1
v 1.5 0 -1
v -0.5 2 2
v 0.5 2 2
v -1.5 2 1
v -0.5 2 1
v 0.5 2 1
v 1.5 2 1
v -1.5 2 -0
v -0.5 2 -0
v 0.5 2 -0
v 1.5 2 -0
v -0.5 2 -1
v 0.5 2 -1
v -1.5 3 -1
v 1.5 3 -1
v -1.5 3 -2
v 1.5 3 -2
v -1.5 3 2
v 1.5 3 2
v -1.5 3 -1
v 1.5 3 -1
v -1.5 7 -1
v 1.5 7 -1
v -1.5 7 -2
v 1.5 7 -2

# faces
f 5/2/1 2/2/1 1/2/1
f 6/2/1 2/2/1 5/2/1
f 7/2/1 4/2/1 3/2/1
f 8/2/1 4/2/1 7/2/1
f 9/1/1 6/1/1 5/1/1
f 9/1/1 7/1/1 6/1/1
f 9/1/1 8/1/1 7/1/1
f 10/1/1 8/1/1 9/1/1
f 12/1/1 11/1/1 10/1/1
f 13/1/1 11/1/1 12/1/1
f 18/2/1 15/2/1 14/2/1
f 19/2/1 15/2/1 18/2/1
f 20/2/1 17/2/1 16/2/1
f 21/2/1 17/2/1 20/2/1
f 22/2/2 23/2/2 26/2/2
f 26/2/2 23/2/2 27/2/2
f 24/2/2 25/2/2 28/2/2
f 28/2/2 25/2/2 29/2/2
f 30/2/2 31/2/2 34/2/2
f 34/2/2 31/2/2 35/2/2
f 32/2/2 33/2/2 36/2/2
f 36/2/2 33/2/2 37/2/2
f 34/1/2 35/1/2 38/1/2
f 35/1/2 36/1/2 38/1/2
f 36/1/2 37/1/2 38/1/2
f 38/1/2 37/1/2 39/1/2
f 39/1/2 40/1/2 41/1/2
f 41/1/2 40/1/2 42/1/2
f 46/2/3 44/2/3 43/2/3
f 47/1/3 45/1/3 44/1/3
f 47/2/3 44/2/3 46/2/3
f 49/1/3 45/1/3 47/1/3
f 50/2/3 49/2/3 48/2/3
f 51/1/3 45/1/3 49/1/3
f 51/2/3 49/2/3 50/2/3
f 52/1/3 45/1/3 51/1/3
f 55/2/3 54/2/3 53/2/3
f 56/2/3 54/2/3 55/2/3
f 59/2/3 58/2/3 57/2/3
f 60/2/3 58/2/3 59/2/3
f 63/1/3 62/1/3 61/1/3
f 64/1/3 62/1/3 63/1/3
f 65/2/4 66/2/4 67/2/4
f 67/2/4 66/2/4 68/2/4
f 69/2/4 70/2/4 71/2/4
f 71/2/4 70/2/4 72/2/4
f 73/2/4 74/2/4 76/2/4
f 74/1/4 75/1/4 77/1/4
f 76/2/4 74/2/4 77/2/4
f 77/1/4 75/1/4 79/1/4
f 78/2/4 79/2/4 80/2/4
f 79/1/4 75/1/4 81/1/4
f 80/2/4 79/2/4 81/2/4
f 81/1/4 75/1/4 82/1/4
f 83/1/4 84/1/4 85/1/4
f 85/1/4 84/1/4 86/1/4
f 91/2/5 88/2/5 87/2/5
f 92/2/5 88/2/5 91/2/5
f 93/2/5 90/2/5 89/2/5
f 94/2/5 90/2/5 93/2/5
f 99/2/5 96/2/5 95/2/5
f 100/2/5 96/2/5 99/2/5
f 101/2/5 98/2/5 97/2/5
f 102/2/5 98/2/5 101/2/5
f 106/1/5 104/1/5 103/1/5
f 107/1/5 104/1/5 106/1/5
f 109/1/5 106/1/5 105/1/5
f 109/1/5 108/1/5 107/1/5
f 109/1/5 107/1/5 106/1/5
f 110/1/5 108/1/5 109/1/5
f 111/1/5 108/1/5 110/1/5
f 112/1/5 108/1/5 111/1/5
f 113/1/5 111/1/5 110/1/5
f 114/1/5 111/1/5 113/1/5
f 117/1/5 116/1/5 115/1/5
f 118/1/5 116/1/5 117/1/5
f 119/1/6 120/1/6 121/1/6
f 121/1/6 120/1/6 122/1/6
f 123/1/6 124/1/6 125/1/6
f 125/1/6 124/1/6 126/1/6
