# MagicaVoxel @ ephtracy

# material
mtllib escaleras.mtl
usemtl palette

# normals
vn -1 0 0
vn 1 0 0
vn 0 0 1
vn 0 0 -1
vn 0 -1 0
vn 0 1 0

# texcoords
vt 0.857422 0.5
vt 0.966797 0.5

# verts
v -4 0 4
v -4 0 3
v -4 1 4
v -4 1 3
v -3 0 5
v -3 0 4
v -3 0 3
v -3 0 2
v -3 1 5
v -3 1 4
v -3 1 3
v -3 1 2
v -2 0 6
v -2 0 5
v -2 0 2
v -2 0 1
v -2 1 6
v -2 1 5
v -2 1 4
v -2 1 3
v -2 1 2
v -2 1 1
v -2 15 4
v -2 15 3
v 2 7 -2
v 2 7 -6
v 2 8 -3
v 2 8 -5
v 2 9 -3
v 2 9 -5
v 2 10 -3
v 2 10 -5
v 2 11 -3
v 2 11 -5
v 2 12 -3
v 2 12 -5
v 2 13 -3
v 2 13 -5
v 2 14 -3
v 2 14 -5
v 2 15 -2
v 2 15 -3
v 2 15 -5
v 2 15 -6
v 3 0 -2
v 3 0 -3
v 3 0 -5
v 3 0 -6
v 3 1 -3
v 3 1 -5
v 3 2 -3
v 3 2 -5
v 3 3 -3
v 3 3 -5
v 3 4 -3
v 3 4 -5
v 3 5 -3
v 3 5 -5
v 3 6 -3
v 3 6 -5
v 3 7 -2
v 3 7 -3
v 3 7 -5
v 3 7 -6
v -1 0 6
v -1 0 5
v -1 0 2
v -1 0 1
v -1 1 6
v -1 1 5
v -1 1 4
v -1 1 3
v -1 1 2
v -1 1 1
v -1 15 4
v -1 15 3
v 0 0 5
v 0 0 4
v 0 0 3
v 0 0 2
v 0 1 5
v 0 1 4
v 0 1 3
v 0 1 2
v 1 0 4
v 1 0 3
v 1 1 4
v 1 1 3
v 3 7 -2
v 3 7 -3
v 3 7 -5
v 3 7 -6
v 3 8 -3
v 3 8 -5
v 3 9 -3
v 3 9 -5
v 3 10 -3
v 3 10 -5
v 3 11 -3
v 3 11 -5
v 3 12 -3
v 3 12 -5
v 3 13 -3
v 3 13 -5
v 3 14 -3
v 3 14 -5
v 3 15 -2
v 3 15 -3
v 3 15 -5
v 3 15 -6
v 4 0 -2
v 4 0 -3
v 4 0 -5
v 4 0 -6
v 4 1 -3
v 4 1 -5
v 4 2 -3
v 4 2 -5
v 4 3 -3
v 4 3 -5
v 4 4 -3
v 4 4 -5
v 4 5 -3
v 4 5 -5
v 4 6 -3
v 4 6 -5
v 4 7 -2
v 4 7 -3
v 4 7 -5
v 4 7 -6
v -2 0 6
v -2 1 6
v -1 0 6
v -1 1 6
v -3 0 5
v -3 1 5
v -2 0 5
v -2 1 5
v -1 0 5
v -1 1 5
v 0 0 5
v 0 1 5
v -4 0 4
v -4 1 4
v -3 0 4
v -3 1 4
v -2 1 4
v -2 15 4
v -1 1 4
v -1 15 4
v 0 0 4
v 0 1 4
v 1 0 4
v 1 1 4
v 2 7 -2
v 2 15 -2
v 3 0 -2
v 3 7 -2
v 3 15 -2
v 4 0 -2
v 4 7 -2
v 2 8 -5
v 2 9 -5
v 2 10 -5
v 2 11 -5
v 2 12 -5
v 2 13 -5
v 2 14 -5
v 2 15 -5
v 3 0 -5
v 3 1 -5
v 3 2 -5
v 3 3 -5
v 3 4 -5
v 3 5 -5
v 3 6 -5
v 3 7 -5
v 3 8 -5
v 3 9 -5
v 3 10 -5
v 3 11 -5
v 3 12 -5
v 3 13 -5
v 3 14 -5
v 3 15 -5
v 4 0 -5
v 4 1 -5
v 4 2 -5
v 4 3 -5
v 4 4 -5
v 4 5 -5
v 4 6 -5
v 4 7 -5
v -4 0 3
v -4 1 3
v -3 0 3
v -3 1 3
v -2 1 3
v -2 15 3
v -1 1 3
v -1 15 3
v 0 0 3
v 0 1 3
v 1 0 3
v 1 1 3
v -3 0 2
v -3 1 2
v -2 0 2
v -2 1 2
v -1 0 2
v -1 1 2
v 0 0 2
v 0 1 2
v -2 0 1
v -2 1 1
v -1 0 1
v -1 1 1
v 2 8 -3
v 2 9 -3
v 2 10 -3
v 2 11 -3
v 2 12 -3
v 2 13 -3
v 2 14 -3
v 2 15 -3
v 3 0 -3
v 3 1 -3
v 3 2 -3
v 3 3 -3
v 3 4 -3
v 3 5 -3
v 3 6 -3
v 3 7 -3
v 3 8 -3
v 3 9 -3
v 3 10 -3
v 3 11 -3
v 3 12 -3
v 3 13 -3
v 3 14 -3
v 3 15 -3
v 4 0 -3
v 4 1 -3
v 4 2 -3
v 4 3 -3
v 4 4 -3
v 4 5 -3
v 4 6 -3
v 4 7 -3
v 2 7 -6
v 2 15 -6
v 3 0 -6
v 3 7 -6
v 3 15 -6
v 4 0 -6
v 4 7 -6
v -2 0 6
v -1 0 6
v -3 0 5
v -2 0 5
v -1 0 5
v 0 0 5
v -4 0 4
v -3 0 4
v -2 0 4
v -1 0 4
v 0 0 4
v 1 0 4
v -4 0 3
v -3 0 3
v -2 0 3
v -1 0 3
v 0 0 3
v 1 0 3
v -3 0 2
v -2 0 2
v -1 0 2
v 0 0 2
v -2 0 1
v -1 0 1
v 3 0 -2
v 4 0 -2
v 3 0 -3
v 4 0 -3
v 3 0 -5
v 4 0 -5
v 3 0 -6
v 4 0 -6
v 3 1 -3
v 4 1 -3
v 3 1 -5
v 4 1 -5
v 3 3 -3
v 4 3 -3
v 3 3 -5
v 4 3 -5
v 3 5 -3
v 4 5 -3
v 3 5 -5
v 4 5 -5
v 2 7 -2
v 3 7 -2
v 3 7 -3
v 3 7 -5
v 2 7 -6
v 3 7 -6
v 2 9 -3
v 3 9 -3
v 2 9 -5
v 3 9 -5
v 2 11 -3
v 3 11 -3
v 2 11 -5
v 3 11 -5
v 2 13 -3
v 3 13 -3
v 2 13 -5
v 3 13 -5
v -2 1 6
v -1 1 6
v -3 1 5
v -2 1 5
v -1 1 5
v 0 1 5
v -4 1 4
v -3 1 4
v -2 1 4
v -1 1 4
v 0 1 4
v 1 1 4
v -4 1 3
v -3 1 3
v -2 1 3
v -1 1 3
v 0 1 3
v 1 1 3
v -3 1 2
v -2 1 2
v -1 1 2
v 0 1 2
v -2 1 1
v -1 1 1
v 3 2 -3
v 4 2 -3
v 3 2 -5
v 4 2 -5
v 3 4 -3
v 4 4 -3
v 3 4 -5
v 4 4 -5
v 3 6 -3
v 4 6 -3
v 3 6 -5
v 4 6 -5
v 3 7 -2
v 4 7 -2
v 3 7 -3
v 4 7 -3
v 3 7 -5
v 4 7 -5
v 3 7 -6
v 4 7 -6
v 2 8 -3
v 3 8 -3
v 2 8 -5
v 3 8 -5
v 2 10 -3
v 3 10 -3
v 2 10 -5
v 3 10 -5
v 2 12 -3
v 3 12 -3
v 2 12 -5
v 3 12 -5
v 2 14 -3
v 3 14 -3
v 2 14 -5
v 3 14 -5
v -2 15 4
v -1 15 4
v -2 15 3
v -1 15 3
v 2 15 -2
v 3 15 -2
v 2 15 -3
v 3 15 -3
v 2 15 -5
v 3 15 -5
v 2 15 -6
v 3 15 -6

# faces
f 3/1/1 2/1/1 1/1/1
f 4/1/1 2/1/1 3/1/1
f 9/1/1 6/1/1 5/1/1
f 10/1/1 6/1/1 9/1/1
f 11/1/1 8/1/1 7/1/1
f 12/1/1 8/1/1 11/1/1
f 17/1/1 14/1/1 13/1/1
f 18/1/1 14/1/1 17/1/1
f 21/1/1 16/1/1 15/1/1
f 22/1/1 16/1/1 21/1/1
f 23/2/1 20/2/1 19/2/1
f 24/2/1 20/2/1 23/2/1
f 27/2/1 26/2/1 25/2/1
f 28/2/1 26/2/1 27/2/1
f 29/2/1 27/2/1 25/2/1
f 30/2/1 26/2/1 28/2/1
f 31/2/1 29/2/1 25/2/1
f 31/2/1 30/2/1 29/2/1
f 32/2/1 26/2/1 30/2/1
f 32/2/1 30/2/1 31/2/1
f 33/2/1 31/2/1 25/2/1
f 34/2/1 26/2/1 32/2/1
f 35/2/1 33/2/1 25/2/1
f 35/2/1 34/2/1 33/2/1
f 36/2/1 26/2/1 34/2/1
f 36/2/1 34/2/1 35/2/1
f 37/2/1 35/2/1 25/2/1
f 38/2/1 26/2/1 36/2/1
f 39/2/1 37/2/1 25/2/1
f 39/2/1 38/2/1 37/2/1
f 40/2/1 26/2/1 38/2/1
f 40/2/1 38/2/1 39/2/1
f 41/2/1 39/2/1 25/2/1
f 42/2/1 39/2/1 41/2/1
f 43/2/1 26/2/1 40/2/1
f 44/2/1 26/2/1 43/2/1
f 49/2/1 46/2/1 45/2/1
f 50/2/1 48/2/1 47/2/1
f 51/2/1 49/2/1 45/2/1
f 51/2/1 50/2/1 49/2/1
f 52/2/1 48/2/1 50/2/1
f 52/2/1 50/2/1 51/2/1
f 53/2/1 51/2/1 45/2/1
f 54/2/1 48/2/1 52/2/1
f 55/2/1 53/2/1 45/2/1
f 55/2/1 54/2/1 53/2/1
f 56/2/1 48/2/1 54/2/1
f 56/2/1 54/2/1 55/2/1
f 57/2/1 55/2/1 45/2/1
f 58/2/1 48/2/1 56/2/1
f 59/2/1 57/2/1 45/2/1
f 59/2/1 58/2/1 57/2/1
f 60/2/1 48/2/1 58/2/1
f 60/2/1 58/2/1 59/2/1
f 61/2/1 59/2/1 45/2/1
f 62/2/1 59/2/1 61/2/1
f 63/2/1 48/2/1 60/2/1
f 64/2/1 48/2/1 63/2/1
f 65/1/2 66/1/2 69/1/2
f 69/1/2 66/1/2 70/1/2
f 67/1/2 68/1/2 73/1/2
f 73/1/2 68/1/2 74/1/2
f 71/2/2 72/2/2 75/2/2
f 75/2/2 72/2/2 76/2/2
f 77/1/2 78/1/2 81/1/2
f 81/1/2 78/1/2 82/1/2
f 79/1/2 80/1/2 83/1/2
f 83/1/2 80/1/2 84/1/2
f 85/1/2 86/1/2 87/1/2
f 87/1/2 86/1/2 88/1/2
f 89/2/2 90/2/2 93/2/2
f 91/2/2 92/2/2 93/2/2
f 90/2/2 91/2/2 93/2/2
f 93/2/2 92/2/2 94/2/2
f 89/2/2 93/2/2 95/2/2
f 94/2/2 92/2/2 96/2/2
f 89/2/2 95/2/2 97/2/2
f 95/2/2 96/2/2 97/2/2
f 96/2/2 92/2/2 98/2/2
f 97/2/2 96/2/2 98/2/2
f 89/2/2 97/2/2 99/2/2
f 98/2/2 92/2/2 100/2/2
f 89/2/2 99/2/2 101/2/2
f 99/2/2 100/2/2 101/2/2
f 100/2/2 92/2/2 102/2/2
f 101/2/2 100/2/2 102/2/2
f 89/2/2 101/2/2 103/2/2
f 102/2/2 92/2/2 104/2/2
f 89/2/2 103/2/2 105/2/2
f 103/2/2 104/2/2 105/2/2
f 104/2/2 92/2/2 106/2/2
f 105/2/2 104/2/2 106/2/2
f 89/2/2 105/2/2 107/2/2
f 107/2/2 105/2/2 108/2/2
f 106/2/2 92/2/2 109/2/2
f 109/2/2 92/2/2 110/2/2
f 111/2/2 112/2/2 115/2/2
f 113/2/2 114/2/2 116/2/2
f 111/2/2 115/2/2 117/2/2
f 115/2/2 116/2/2 117/2/2
f 116/2/2 114/2/2 118/2/2
f 117/2/2 116/2/2 118/2/2
f 111/2/2 117/2/2 119/2/2
f 118/2/2 114/2/2 120/2/2
f 111/2/2 119/2/2 121/2/2
f 119/2/2 120/2/2 121/2/2
f 120/2/2 114/2/2 122/2/2
f 121/2/2 120/2/2 122/2/2
f 111/2/2 121/2/2 123/2/2
f 122/2/2 114/2/2 124/2/2
f 111/2/2 123/2/2 125/2/2
f 123/2/2 124/2/2 125/2/2
f 124/2/2 114/2/2 126/2/2
f 125/2/2 124/2/2 126/2/2
f 111/2/2 125/2/2 127/2/2
f 127/2/2 125/2/2 128/2/2
f 126/2/2 114/2/2 129/2/2
f 129/2/2 114/2/2 130/2/2
f 133/1/3 132/1/3 131/1/3
f 134/1/3 132/1/3 133/1/3
f 137/1/3 136/1/3 135/1/3
f 138/1/3 136/1/3 137/1/3
f 141/1/3 140/1/3 139/1/3
f 142/1/3 140/1/3 141/1/3
f 145/1/3 144/1/3 143/1/3
f 146/1/3 144/1/3 145/1/3
f 149/2/3 148/2/3 147/2/3
f 150/2/3 148/2/3 149/2/3
f 153/1/3 152/1/3 151/1/3
f 154/1/3 152/1/3 153/1/3
f 158/2/3 156/2/3 155/2/3
f 159/2/3 156/2/3 158/2/3
f 160/2/3 158/2/3 157/2/3
f 161/2/3 158/2/3 160/2/3
f 178/2/3 163/2/3 162/2/3
f 179/2/3 163/2/3 178/2/3
f 180/2/3 165/2/3 164/2/3
f 181/2/3 165/2/3 180/2/3
f 182/2/3 167/2/3 166/2/3
f 183/2/3 167/2/3 182/2/3
f 184/2/3 169/2/3 168/2/3
f 185/2/3 169/2/3 184/2/3
f 186/2/3 171/2/3 170/2/3
f 187/2/3 171/2/3 186/2/3
f 188/2/3 173/2/3 172/2/3
f 189/2/3 173/2/3 188/2/3
f 190/2/3 175/2/3 174/2/3
f 191/2/3 175/2/3 190/2/3
f 192/2/3 177/2/3 176/2/3
f 193/2/3 177/2/3 192/2/3
f 194/1/4 195/1/4 196/1/4
f 196/1/4 195/1/4 197/1/4
f 198/2/4 199/2/4 200/2/4
f 200/2/4 199/2/4 201/2/4
f 202/1/4 203/1/4 204/1/4
f 204/1/4 203/1/4 205/1/4
f 206/1/4 207/1/4 208/1/4
f 208/1/4 207/1/4 209/1/4
f 210/1/4 211/1/4 212/1/4
f 212/1/4 211/1/4 213/1/4
f 214/1/4 215/1/4 216/1/4
f 216/1/4 215/1/4 217/1/4
f 218/2/4 219/2/4 234/2/4
f 234/2/4 219/2/4 235/2/4
f 220/2/4 221/2/4 236/2/4
f 236/2/4 221/2/4 237/2/4
f 222/2/4 223/2/4 238/2/4
f 238/2/4 223/2/4 239/2/4
f 224/2/4 225/2/4 240/2/4
f 240/2/4 225/2/4 241/2/4
f 226/2/4 227/2/4 242/2/4
f 242/2/4 227/2/4 243/2/4
f 228/2/4 229/2/4 244/2/4
f 244/2/4 229/2/4 245/2/4
f 230/2/4 231/2/4 246/2/4
f 246/2/4 231/2/4 247/2/4
f 232/2/4 233/2/4 248/2/4
f 248/2/4 233/2/4 249/2/4
f 250/2/4 251/2/4 253/2/4
f 253/2/4 251/2/4 254/2/4
f 252/2/4 253/2/4 255/2/4
f 255/2/4 253/2/4 256/2/4
f 260/1/5 258/1/5 257/1/5
f 261/1/5 258/1/5 260/1/5
f 264/1/5 260/1/5 259/1/5
f 264/1/5 262/1/5 261/1/5
f 264/1/5 261/1/5 260/1/5
f 265/1/5 262/1/5 264/1/5
f 266/1/5 262/1/5 265/1/5
f 267/1/5 262/1/5 266/1/5
f 269/1/5 264/1/5 263/1/5
f 269/1/5 265/1/5 264/1/5
f 270/1/5 265/1/5 269/1/5
f 271/2/5 266/2/5 265/2/5
f 271/1/5 265/1/5 270/1/5
f 272/1/5 268/1/5 267/1/5
f 272/2/5 266/2/5 271/2/5
f 272/1/5 267/1/5 266/1/5
f 273/1/5 268/1/5 272/1/5
f 274/1/5 268/1/5 273/1/5
f 275/1/5 271/1/5 270/1/5
f 275/1/5 273/1/5 272/1/5
f 275/1/5 272/1/5 271/1/5
f 276/1/5 273/1/5 275/1/5
f 277/1/5 273/1/5 276/1/5
f 278/1/5 273/1/5 277/1/5
f 279/1/5 277/1/5 276/1/5
f 280/1/5 277/1/5 279/1/5
f 283/2/5 282/2/5 281/2/5
f 284/2/5 282/2/5 283/2/5
f 287/2/5 286/2/5 285/2/5
f 288/2/5 286/2/5 287/2/5
f 291/2/5 290/2/5 289/2/5
f 292/2/5 290/2/5 291/2/5
f 295/2/5 294/2/5 293/2/5
f 296/2/5 294/2/5 295/2/5
f 299/2/5 298/2/5 297/2/5
f 300/2/5 298/2/5 299/2/5
f 303/2/5 302/2/5 301/2/5
f 304/2/5 303/2/5 301/2/5
f 305/2/5 304/2/5 301/2/5
f 306/2/5 304/2/5 305/2/5
f 309/2/5 308/2/5 307/2/5
f 310/2/5 308/2/5 309/2/5
f 313/2/5 312/2/5 311/2/5
f 314/2/5 312/2/5 313/2/5
f 317/2/5 316/2/5 315/2/5
f 318/2/5 316/2/5 317/2/5
f 319/1/6 320/1/6 322/1/6
f 322/1/6 320/1/6 323/1/6
f 321/1/6 322/1/6 326/1/6
f 323/1/6 324/1/6 326/1/6
f 322/1/6 323/1/6 326/1/6
f 326/1/6 324/1/6 327/1/6
f 327/1/6 324/1/6 328/1/6
f 328/1/6 324/1/6 329/1/6
f 325/1/6 326/1/6 331/1/6
f 326/1/6 327/1/6 331/1/6
f 331/1/6 327/1/6 332/1/6
f 332/1/6 327/1/6 333/1/6
f 329/1/6 330/1/6 334/1/6
f 328/1/6 329/1/6 334/1/6
f 334/1/6 330/1/6 335/1/6
f 335/1/6 330/1/6 336/1/6
f 332/1/6 333/1/6 337/1/6
f 334/1/6 335/1/6 337/1/6
f 333/1/6 334/1/6 337/1/6
f 337/1/6 335/1/6 338/1/6
f 338/1/6 335/1/6 339/1/6
f 339/1/6 335/1/6 340/1/6
f 338/1/6 339/1/6 341/1/6
f 341/1/6 339/1/6 342/1/6
f 343/2/6 344/2/6 345/2/6
f 345/2/6 344/2/6 346/2/6
f 347/2/6 348/2/6 349/2/6
f 349/2/6 348/2/6 350/2/6
f 351/2/6 352/2/6 353/2/6
f 353/2/6 352/2/6 354/2/6
f 355/2/6 356/2/6 357/2/6
f 357/2/6 356/2/6 358/2/6
f 359/2/6 360/2/6 361/2/6
f 361/2/6 360/2/6 362/2/6
f 363/2/6 364/2/6 365/2/6
f 365/2/6 364/2/6 366/2/6
f 367/2/6 368/2/6 369/2/6
f 369/2/6 368/2/6 370/2/6
f 371/2/6 372/2/6 373/2/6
f 373/2/6 372/2/6 374/2/6
f 375/2/6 376/2/6 377/2/6
f 377/2/6 376/2/6 378/2/6
f 379/2/6 380/2/6 381/2/6
f 381/2/6 380/2/6 382/2/6
f 383/2/6 384/2/6 385/2/6
f 385/2/6 384/2/6 386/2/6
f 387/2/6 388/2/6 389/2/6
f 389/2/6 388/2/6 390/2/6
